<svg width="517" height="223" viewBox="0 0 517 223" fill="none" xmlns="http://www.w3.org/2000/svg">
<rect width="517" height="223" rx="111.5" fill="#89BFC7"/>
<path d="M230.156 99.6875C229.036 101.328 227.786 103.294 226.406 105.586C225.026 107.878 223.555 110.443 221.992 113.281C220.664 115.651 219.349 118.177 218.047 120.859C216.771 123.516 215.547 126.159 214.375 128.789C213.203 131.393 212.122 133.906 211.133 136.328C210.143 138.724 209.284 140.846 208.555 142.695C207.826 144.518 207.253 145.99 206.836 147.109C206.419 148.203 206.211 148.763 206.211 148.789C205.951 149.44 205.482 149.766 204.805 149.766C204.466 149.766 204.167 149.661 203.906 149.453C203.646 149.219 203.477 148.932 203.398 148.594C203.398 148.568 203.268 148.021 203.008 146.953C202.773 145.859 202.448 144.414 202.031 142.617C201.615 140.794 201.133 138.711 200.586 136.367C200.065 133.997 199.505 131.536 198.906 128.984C198.333 126.406 197.747 123.802 197.148 121.172C196.549 118.542 195.99 116.042 195.469 113.672C193.724 118.594 191.966 122.956 190.195 126.758C188.451 130.534 186.654 133.828 184.805 136.641C182.956 139.427 181.042 141.771 179.062 143.672C177.109 145.573 175.052 147.109 172.891 148.281C170.755 149.427 168.503 150.247 166.133 150.742C163.789 151.237 161.302 151.484 158.672 151.484C157.318 151.484 155.872 151.328 154.336 151.016C152.799 150.729 151.276 150.273 149.766 149.648C148.255 149.023 146.81 148.242 145.43 147.305C144.049 146.367 142.826 145.26 141.758 143.984C140.69 142.682 139.844 141.224 139.219 139.609C138.594 137.969 138.281 136.146 138.281 134.141C138.281 132.031 138.724 130.104 139.609 128.359C140.495 126.589 141.693 125.078 143.203 123.828C144.714 122.552 146.458 121.562 148.438 120.859C150.443 120.156 152.552 119.805 154.766 119.805C156.38 119.805 157.826 119.948 159.102 120.234C160.404 120.495 161.549 120.833 162.539 121.25C163.529 121.667 164.375 122.122 165.078 122.617C165.781 123.112 166.367 123.568 166.836 123.984C167.305 124.401 167.643 124.766 167.852 125.078C168.06 125.365 168.177 125.508 168.203 125.508C168.359 125.794 168.438 126.068 168.438 126.328C168.438 126.693 168.294 127.031 168.008 127.344C167.747 127.656 167.396 127.812 166.953 127.812C166.432 127.812 166.016 127.591 165.703 127.148C165.677 127.122 165.469 126.888 165.078 126.445C164.688 125.977 164.049 125.469 163.164 124.922C162.279 124.375 161.133 123.88 159.727 123.438C158.346 122.995 156.654 122.773 154.648 122.773C152.826 122.773 151.094 123.06 149.453 123.633C147.839 124.18 146.419 124.961 145.195 125.977C143.997 126.992 143.034 128.203 142.305 129.609C141.602 130.99 141.25 132.513 141.25 134.18C141.25 135.82 141.523 137.318 142.07 138.672C142.617 140.026 143.346 141.237 144.258 142.305C145.169 143.372 146.224 144.297 147.422 145.078C148.62 145.859 149.87 146.51 151.172 147.031C152.474 147.526 153.776 147.904 155.078 148.164C156.406 148.398 157.656 148.516 158.828 148.516C160.807 148.516 162.734 148.372 164.609 148.086C166.51 147.773 168.372 147.201 170.195 146.367C172.044 145.534 173.854 144.388 175.625 142.93C177.396 141.471 179.154 139.57 180.898 137.227C182.643 134.883 184.362 132.057 186.055 128.75C187.773 125.443 189.492 121.536 191.211 117.031C191.732 115.677 192.24 114.219 192.734 112.656C193.229 111.094 193.737 109.518 194.258 107.93C193.815 105.638 193.49 103.685 193.281 102.07C193.099 100.456 193.008 99.1146 193.008 98.0469C193.008 96.901 193.099 95.9896 193.281 95.3125C193.464 94.6354 193.698 94.1276 193.984 93.7891C194.271 93.4245 194.583 93.2031 194.922 93.125C195.26 93.0208 195.586 92.9688 195.898 92.9688C196.159 92.9688 196.445 93.0208 196.758 93.125C197.096 93.2292 197.396 93.4635 197.656 93.8281C197.943 94.1667 198.177 94.6745 198.359 95.3516C198.542 96.0286 198.633 96.9401 198.633 98.0859C198.633 99.3359 198.516 100.781 198.281 102.422C198.047 104.062 197.695 105.872 197.227 107.852C197.565 109.44 197.956 111.211 198.398 113.164C198.841 115.117 199.297 117.148 199.766 119.258C200.234 121.341 200.716 123.477 201.211 125.664C201.706 127.852 202.188 129.987 202.656 132.07C203.125 134.154 203.568 136.146 203.984 138.047C204.427 139.948 204.831 141.667 205.195 143.203C205.898 141.432 206.758 139.297 207.773 136.797C208.789 134.271 209.922 131.602 211.172 128.789C212.422 125.951 213.737 123.073 215.117 120.156C216.523 117.214 217.956 114.44 219.414 111.836C221.471 108.138 223.359 104.974 225.078 102.344C226.797 99.6875 228.281 97.5 229.531 95.7812C230.781 94.0625 231.758 92.7995 232.461 91.9922C233.19 91.1589 233.581 90.7031 233.633 90.625C233.919 90.3385 234.271 90.1953 234.688 90.1953C235.13 90.1953 235.482 90.3516 235.742 90.6641C236.029 90.9505 236.172 91.2891 236.172 91.6797C236.172 91.862 236.133 92.0443 236.055 92.2266C236.055 92.2526 235.898 92.6432 235.586 93.3984C235.299 94.1276 234.922 95.1432 234.453 96.4453C234.01 97.7214 233.516 99.2318 232.969 100.977C232.422 102.695 231.888 104.557 231.367 106.562C230.846 108.542 230.378 110.625 229.961 112.812C229.57 114.974 229.284 117.135 229.102 119.297C229.023 120.286 228.958 121.328 228.906 122.422C228.854 123.49 228.828 124.57 228.828 125.664C228.828 127.383 228.906 129.115 229.062 130.859C229.219 132.604 229.479 134.284 229.844 135.898C230.208 137.513 230.703 139.036 231.328 140.469C231.953 141.875 232.721 143.112 233.633 144.18C234.544 145.247 235.625 146.107 236.875 146.758C238.151 147.409 239.622 147.76 241.289 147.812C241.706 147.839 242.031 148.021 242.266 148.359C242.526 148.672 242.656 149.01 242.656 149.375C242.656 149.74 242.513 150.065 242.227 150.352C241.94 150.638 241.602 150.781 241.211 150.781C240.794 150.781 240.378 150.742 239.961 150.664C238.086 150.404 236.432 149.87 235 149.062C233.568 148.229 232.331 147.214 231.289 146.016C230.247 144.792 229.375 143.411 228.672 141.875C227.995 140.312 227.448 138.646 227.031 136.875C226.615 135.104 226.315 133.268 226.133 131.367C225.977 129.44 225.898 127.5 225.898 125.547C225.898 123.229 226.016 120.911 226.25 118.594C226.484 116.276 226.797 114.023 227.188 111.836C227.578 109.622 228.034 107.487 228.555 105.43C229.076 103.372 229.609 101.458 230.156 99.6875ZM249.609 145.703C250.156 146.458 250.859 147.07 251.719 147.539C252.578 147.982 253.633 148.203 254.883 148.203C256.159 148.203 257.318 147.904 258.359 147.305C259.401 146.68 260.352 145.872 261.211 144.883C262.07 143.893 262.839 142.786 263.516 141.562C264.193 140.339 264.805 139.115 265.352 137.891C265.482 137.604 265.664 137.396 265.898 137.266C266.133 137.109 266.393 137.031 266.68 137.031C267.122 137.031 267.474 137.188 267.734 137.5C268.021 137.812 268.164 138.151 268.164 138.516C268.164 138.646 268.151 138.763 268.125 138.867C268.099 138.945 268.06 139.036 268.008 139.141C266.211 143.099 264.245 146.081 262.109 148.086C260 150.091 257.604 151.12 254.922 151.172C253.203 151.172 251.719 150.833 250.469 150.156C249.219 149.505 248.19 148.659 247.383 147.617C246.576 146.549 245.977 145.352 245.586 144.023C245.195 142.695 245 141.367 245 140.039C245 138.711 245.156 137.487 245.469 136.367C245.807 135.247 246.276 134.271 246.875 133.438C247.5 132.604 248.229 131.953 249.062 131.484C249.922 131.016 250.859 130.781 251.875 130.781C252.474 130.781 253.06 130.911 253.633 131.172C254.232 131.406 254.766 131.758 255.234 132.227C255.703 132.669 256.081 133.216 256.367 133.867C256.654 134.518 256.797 135.26 256.797 136.094C256.797 137.161 256.615 138.164 256.25 139.102C255.885 140.039 255.378 140.911 254.727 141.719C254.102 142.526 253.346 143.268 252.461 143.945C251.576 144.622 250.625 145.208 249.609 145.703ZM248.438 143.164C249.245 142.826 249.974 142.396 250.625 141.875C251.302 141.354 251.875 140.781 252.344 140.156C252.812 139.531 253.177 138.88 253.438 138.203C253.698 137.5 253.828 136.797 253.828 136.094C253.828 135.312 253.633 134.727 253.242 134.336C252.852 133.919 252.396 133.711 251.875 133.711C251.172 133.711 250.573 133.906 250.078 134.297C249.583 134.688 249.18 135.195 248.867 135.82C248.555 136.445 248.32 137.148 248.164 137.93C248.034 138.685 247.969 139.44 247.969 140.195C247.969 140.664 248.008 141.159 248.086 141.68C248.19 142.201 248.307 142.695 248.438 143.164ZM290.938 139.18C290.781 139.466 290.508 139.987 290.117 140.742C289.753 141.497 289.245 142.357 288.594 143.32C287.969 144.258 287.214 145.234 286.328 146.25C285.443 147.266 284.427 148.203 283.281 149.062C282.135 149.896 280.846 150.586 279.414 151.133C278.008 151.68 276.471 151.953 274.805 151.953C273.32 151.953 272.005 151.68 270.859 151.133C269.714 150.612 268.737 149.87 267.93 148.906C267.122 147.917 266.51 146.758 266.094 145.43C265.677 144.102 265.469 142.63 265.469 141.016C265.469 139.453 265.69 137.995 266.133 136.641C266.576 135.26 267.174 134.062 267.93 133.047C268.711 132.031 269.609 131.237 270.625 130.664C271.641 130.065 272.721 129.766 273.867 129.766C274.727 129.766 275.508 129.922 276.211 130.234C276.914 130.521 277.5 130.911 277.969 131.406C278.464 131.901 278.841 132.448 279.102 133.047C279.388 133.646 279.531 134.245 279.531 134.844C279.531 135.417 279.453 135.951 279.297 136.445C279.167 136.94 278.984 137.383 278.75 137.773C278.542 138.138 278.294 138.438 278.008 138.672C277.721 138.88 277.435 138.984 277.148 138.984C276.706 138.984 276.341 138.841 276.055 138.555C275.794 138.268 275.664 137.917 275.664 137.5C275.664 137.292 275.703 137.109 275.781 136.953C275.885 136.797 275.99 136.641 276.094 136.484C276.224 136.302 276.328 136.094 276.406 135.859C276.51 135.599 276.562 135.273 276.562 134.883C276.562 134.336 276.302 133.841 275.781 133.398C275.286 132.956 274.648 132.734 273.867 132.734C273.138 132.734 272.435 132.956 271.758 133.398C271.107 133.841 270.534 134.44 270.039 135.195C269.544 135.924 269.141 136.797 268.828 137.812C268.542 138.802 268.398 139.857 268.398 140.977C268.398 142.044 268.529 143.06 268.789 144.023C269.049 144.987 269.44 145.846 269.961 146.602C270.482 147.331 271.133 147.917 271.914 148.359C272.721 148.802 273.672 149.023 274.766 149.023C276.172 149.023 277.474 148.776 278.672 148.281C279.87 147.76 280.964 147.109 281.953 146.328C282.943 145.547 283.815 144.701 284.57 143.789C285.326 142.852 285.964 141.979 286.484 141.172C287.031 140.339 287.448 139.622 287.734 139.023C288.047 138.398 288.229 138.008 288.281 137.852C288.385 137.591 288.555 137.396 288.789 137.266C289.049 137.109 289.323 137.031 289.609 137.031C290.052 137.031 290.404 137.188 290.664 137.5C290.951 137.812 291.094 138.164 291.094 138.555C291.094 138.711 291.042 138.919 290.938 139.18ZM291.367 146.68C291.784 145.794 292.266 144.844 292.812 143.828C293.359 142.786 293.945 141.732 294.57 140.664C295.195 139.57 295.859 138.49 296.562 137.422C297.266 136.354 297.995 135.352 298.75 134.414C299.505 133.503 300.26 132.852 301.016 132.461C301.797 132.044 302.526 131.836 303.203 131.836C303.88 131.836 304.466 131.979 304.961 132.266C305.482 132.526 305.898 132.891 306.211 133.359C306.549 133.828 306.797 134.375 306.953 135C307.135 135.625 307.227 136.302 307.227 137.031C307.227 137.63 307.161 138.438 307.031 139.453C306.927 140.443 306.875 141.484 306.875 142.578C306.875 143.203 306.901 143.828 306.953 144.453C307.031 145.052 307.148 145.599 307.305 146.094C307.487 146.562 307.747 146.953 308.086 147.266C308.424 147.552 308.867 147.695 309.414 147.695C310.039 147.695 310.664 147.526 311.289 147.188C311.914 146.823 312.526 146.354 313.125 145.781C313.724 145.182 314.297 144.531 314.844 143.828C315.391 143.099 315.885 142.383 316.328 141.68C316.771 140.951 317.161 140.26 317.5 139.609C317.839 138.932 318.112 138.372 318.32 137.93C318.581 137.331 319.036 137.031 319.688 137.031C320.13 137.031 320.482 137.188 320.742 137.5C321.003 137.812 321.133 138.151 321.133 138.516C321.133 138.724 321.094 138.919 321.016 139.102C320.911 139.31 320.703 139.74 320.391 140.391C320.104 141.042 319.701 141.797 319.18 142.656C318.685 143.516 318.099 144.414 317.422 145.352C316.745 146.289 315.99 147.161 315.156 147.969C314.349 148.75 313.464 149.401 312.5 149.922C311.562 150.417 310.573 150.664 309.531 150.664C308.333 150.664 307.37 150.417 306.641 149.922C305.911 149.401 305.339 148.75 304.922 147.969C304.531 147.188 304.258 146.315 304.102 145.352C303.971 144.388 303.906 143.451 303.906 142.539C303.906 142.07 303.919 141.576 303.945 141.055C303.997 140.508 304.049 139.974 304.102 139.453C304.154 138.932 304.193 138.451 304.219 138.008C304.271 137.539 304.297 137.148 304.297 136.836C304.297 136.029 304.18 135.482 303.945 135.195C303.737 134.909 303.49 134.766 303.203 134.766C302.786 134.766 302.305 135.013 301.758 135.508C301.237 135.977 300.677 136.602 300.078 137.383C299.505 138.164 298.919 139.049 298.32 140.039C297.747 141.003 297.188 141.966 296.641 142.93C296.094 143.893 295.599 144.818 295.156 145.703C294.714 146.562 294.349 147.279 294.062 147.852C293.516 148.945 292.956 149.674 292.383 150.039C291.836 150.43 291.341 150.625 290.898 150.625C290.091 150.625 289.466 150.312 289.023 149.688C288.607 149.036 288.398 148.255 288.398 147.344V144.883C288.398 139.961 288.398 135.273 288.398 130.82C288.424 126.341 288.49 122.188 288.594 118.359C288.724 114.505 288.919 111.029 289.18 107.93C289.466 104.805 289.883 102.148 290.43 99.9609C290.977 97.7474 291.667 96.0417 292.5 94.8438C293.359 93.6458 294.427 93.0469 295.703 93.0469C296.797 93.0469 297.721 93.3464 298.477 93.9453C299.232 94.5443 299.844 95.3646 300.312 96.4062C300.781 97.4219 301.12 98.6198 301.328 100C301.536 101.354 301.641 102.786 301.641 104.297C301.641 107.37 301.354 110.391 300.781 113.359C300.234 116.302 299.492 119.18 298.555 121.992C297.617 124.805 296.523 127.552 295.273 130.234C294.023 132.891 292.708 135.482 291.328 138.008C291.328 138.477 291.328 139.036 291.328 139.688C291.328 140.339 291.328 140.99 291.328 141.641C291.328 142.292 291.328 142.904 291.328 143.477C291.328 144.049 291.328 144.505 291.328 144.844L291.367 146.68ZM291.367 132.266C292.461 129.87 293.451 127.539 294.336 125.273C295.247 122.982 296.016 120.703 296.641 118.438C297.292 116.172 297.799 113.88 298.164 111.562C298.529 109.219 298.711 106.784 298.711 104.258C298.711 103.841 298.685 103.177 298.633 102.266C298.607 101.354 298.49 100.43 298.281 99.4922C298.099 98.5547 297.799 97.7344 297.383 97.0312C296.992 96.3281 296.432 95.9766 295.703 95.9766C295.13 95.9766 294.635 96.3672 294.219 97.1484C293.802 97.9036 293.438 98.9453 293.125 100.273C292.812 101.576 292.552 103.099 292.344 104.844C292.135 106.589 291.966 108.438 291.836 110.391C291.706 112.344 291.602 114.349 291.523 116.406C291.471 118.464 291.432 120.469 291.406 122.422C291.38 124.349 291.367 126.159 291.367 127.852C291.367 129.544 291.367 131.016 291.367 132.266ZM348.555 139.102C348.451 139.31 348.229 139.753 347.891 140.43C347.578 141.081 347.161 141.836 346.641 142.695C346.146 143.555 345.56 144.453 344.883 145.391C344.206 146.328 343.451 147.188 342.617 147.969C341.784 148.75 340.885 149.401 339.922 149.922C338.958 150.417 337.943 150.664 336.875 150.664C335.365 150.664 334.089 150.182 333.047 149.219C332.031 148.255 331.289 147.044 330.82 145.586C329.935 147.07 328.88 148.255 327.656 149.141C326.432 150 325.208 150.43 323.984 150.43C323.021 150.43 322.148 150.26 321.367 149.922C320.586 149.557 319.922 149.062 319.375 148.438C318.828 147.786 318.398 147.031 318.086 146.172C317.799 145.312 317.656 144.375 317.656 143.359C317.656 141.328 317.995 139.544 318.672 138.008C319.375 136.445 320.26 135.143 321.328 134.102C322.396 133.06 323.568 132.279 324.844 131.758C326.146 131.237 327.396 130.977 328.594 130.977C329.401 130.977 330.143 131.094 330.82 131.328C331.497 131.536 332.07 131.771 332.539 132.031C333.034 132.292 333.411 132.539 333.672 132.773C333.932 132.982 334.076 133.099 334.102 133.125C334.388 133.464 334.531 133.815 334.531 134.18C334.531 134.57 334.388 134.922 334.102 135.234C333.815 135.521 333.477 135.664 333.086 135.664C332.669 135.664 332.318 135.521 332.031 135.234C331.979 135.182 331.862 135.091 331.68 134.961C331.497 134.805 331.25 134.648 330.938 134.492C330.625 134.336 330.247 134.206 329.805 134.102C329.388 133.971 328.906 133.906 328.359 133.906C327.552 133.906 326.693 134.089 325.781 134.453C324.87 134.818 324.036 135.391 323.281 136.172C322.526 136.927 321.888 137.891 321.367 139.062C320.872 140.208 320.625 141.576 320.625 143.164C320.625 143.659 320.677 144.167 320.781 144.688C320.885 145.182 321.068 145.638 321.328 146.055C321.589 146.471 321.94 146.81 322.383 147.07C322.826 147.331 323.372 147.461 324.023 147.461C324.492 147.461 325.026 147.305 325.625 146.992C326.25 146.68 326.836 146.198 327.383 145.547C327.956 144.896 328.464 144.076 328.906 143.086C329.375 142.096 329.701 140.924 329.883 139.57C329.935 139.206 330.104 138.906 330.391 138.672C330.677 138.411 331.016 138.281 331.406 138.281C331.771 138.281 332.083 138.424 332.344 138.711C332.63 138.997 332.786 139.323 332.812 139.688C332.839 140.182 332.891 140.885 332.969 141.797C333.047 142.682 333.216 143.568 333.477 144.453C333.763 145.339 334.18 146.107 334.727 146.758C335.273 147.409 336.029 147.734 336.992 147.734C337.617 147.734 338.229 147.565 338.828 147.227C339.453 146.888 340.052 146.445 340.625 145.898C341.224 145.326 341.784 144.688 342.305 143.984C342.852 143.255 343.346 142.526 343.789 141.797C344.232 141.068 344.622 140.365 344.961 139.688C345.299 139.01 345.586 138.424 345.82 137.93C345.951 137.643 346.133 137.422 346.367 137.266C346.628 137.109 346.901 137.031 347.188 137.031C347.63 137.031 347.982 137.201 348.242 137.539C348.529 137.852 348.672 138.19 348.672 138.555C348.672 138.737 348.633 138.919 348.555 139.102ZM354.531 146.484C354.948 145.625 355.43 144.688 355.977 143.672C356.523 142.63 357.109 141.589 357.734 140.547C358.359 139.479 359.01 138.424 359.688 137.383C360.391 136.341 361.12 135.352 361.875 134.414C362.63 133.503 363.385 132.852 364.141 132.461C364.922 132.044 365.651 131.836 366.328 131.836C367.682 131.836 368.685 132.331 369.336 133.32C369.987 134.31 370.312 135.534 370.312 136.992C370.312 137.331 370.286 137.747 370.234 138.242C370.208 138.711 370.169 139.219 370.117 139.766C370.091 140.312 370.052 140.872 370 141.445C369.974 141.992 369.961 142.513 369.961 143.008C369.961 143.633 369.987 144.232 370.039 144.805C370.117 145.378 370.247 145.885 370.43 146.328C370.612 146.745 370.872 147.083 371.211 147.344C371.549 147.578 371.992 147.695 372.539 147.695C373.529 147.695 374.492 147.318 375.43 146.562C376.367 145.781 377.227 144.87 378.008 143.828C378.815 142.76 379.505 141.68 380.078 140.586C380.677 139.492 381.12 138.607 381.406 137.93C381.536 137.643 381.719 137.422 381.953 137.266C382.214 137.109 382.487 137.031 382.773 137.031C383.216 137.031 383.568 137.201 383.828 137.539C384.115 137.852 384.258 138.19 384.258 138.555C384.258 138.737 384.219 138.919 384.141 139.102C384.036 139.31 383.828 139.74 383.516 140.391C383.203 141.042 382.786 141.797 382.266 142.656C381.771 143.49 381.185 144.388 380.508 145.352C379.831 146.289 379.076 147.148 378.242 147.93C377.435 148.711 376.549 149.362 375.586 149.883C374.648 150.404 373.659 150.664 372.617 150.664C371.445 150.664 370.495 150.443 369.766 150C369.036 149.531 368.464 148.932 368.047 148.203C367.63 147.448 367.344 146.628 367.188 145.742C367.057 144.831 366.992 143.919 366.992 143.008C366.992 142.617 367.005 142.174 367.031 141.68C367.083 141.185 367.135 140.664 367.188 140.117C367.266 139.57 367.318 139.023 367.344 138.477C367.396 137.93 367.422 137.409 367.422 136.914C367.422 136.081 367.292 135.521 367.031 135.234C366.771 134.922 366.536 134.766 366.328 134.766C365.911 134.766 365.43 135.013 364.883 135.508C364.362 135.977 363.802 136.602 363.203 137.383C362.63 138.164 362.031 139.049 361.406 140.039C360.807 141.003 360.234 141.966 359.688 142.93C359.167 143.893 358.672 144.818 358.203 145.703C357.76 146.562 357.409 147.279 357.148 147.852C356.628 148.945 356.107 149.674 355.586 150.039C355.065 150.43 354.531 150.625 353.984 150.625C353.229 150.625 352.617 150.404 352.148 149.961C351.706 149.492 351.484 148.841 351.484 148.008C351.484 147.826 351.51 147.474 351.562 146.953C351.615 146.406 351.68 145.768 351.758 145.039C351.836 144.284 351.914 143.477 351.992 142.617C352.07 141.758 352.148 140.911 352.227 140.078C352.305 139.219 352.37 138.424 352.422 137.695C352.474 136.966 352.5 136.354 352.5 135.859C352.5 135.208 352.474 134.583 352.422 133.984C352.37 133.385 352.266 133.021 352.109 132.891C351.875 132.969 351.458 133.464 350.859 134.375C350.26 135.26 349.492 136.836 348.555 139.102C348.424 139.388 348.229 139.609 347.969 139.766C347.708 139.922 347.435 140 347.148 140C346.706 140 346.354 139.857 346.094 139.57C345.833 139.258 345.703 138.906 345.703 138.516C345.703 138.333 345.742 138.138 345.82 137.93C346.992 135.143 348.086 133.099 349.102 131.797C350.143 130.469 351.172 129.805 352.188 129.805C352.786 129.805 353.294 129.961 353.711 130.273C354.128 130.56 354.453 130.951 354.688 131.445C354.948 131.94 355.13 132.487 355.234 133.086C355.365 133.685 355.43 134.297 355.43 134.922C355.43 135.391 355.391 136.12 355.312 137.109C355.26 138.099 355.182 139.167 355.078 140.312C354.974 141.432 354.87 142.552 354.766 143.672C354.688 144.792 354.609 145.729 354.531 146.484ZM395.625 153.828C400.521 147.448 403.919 142.148 405.82 137.93C405.951 137.643 406.12 137.435 406.328 137.305C406.562 137.148 406.823 137.07 407.109 137.07C407.552 137.07 407.917 137.227 408.203 137.539C408.49 137.826 408.633 138.164 408.633 138.555C408.633 138.737 408.594 138.919 408.516 139.102C407.37 141.706 405.742 144.609 403.633 147.812C401.523 151.016 398.854 154.635 395.625 158.672C395.625 160.312 395.638 161.953 395.664 163.594C395.69 165.234 395.703 167.031 395.703 168.984C395.703 170.938 395.651 172.865 395.547 174.766C395.469 176.693 395.312 178.516 395.078 180.234C394.844 181.979 394.518 183.581 394.102 185.039C393.711 186.523 393.19 187.799 392.539 188.867C391.914 189.961 391.146 190.807 390.234 191.406C389.349 192.031 388.294 192.344 387.07 192.344C385.326 192.344 383.984 191.68 383.047 190.352C382.109 189.023 381.641 187.135 381.641 184.688C381.641 183.385 381.758 181.966 381.992 180.43C382.253 178.919 382.617 177.357 383.086 175.742C383.555 174.128 384.115 172.487 384.766 170.82C385.443 169.18 386.185 167.578 386.992 166.016C387.799 164.453 388.672 162.956 389.609 161.523C390.573 160.091 391.589 158.789 392.656 157.617C392.682 155.794 392.695 153.984 392.695 152.188C392.721 150.391 392.76 148.737 392.812 147.227C392.031 148.216 391.094 148.997 390 149.57C388.932 150.143 387.865 150.43 386.797 150.43C385.885 150.43 385.052 150.26 384.297 149.922C383.568 149.557 382.943 149.062 382.422 148.438C381.901 147.786 381.497 147.031 381.211 146.172C380.924 145.312 380.781 144.375 380.781 143.359C380.781 141.328 381.12 139.544 381.797 138.008C382.5 136.445 383.385 135.143 384.453 134.102C385.521 133.06 386.693 132.279 387.969 131.758C389.271 131.237 390.521 130.977 391.719 130.977C392.526 130.977 393.268 131.081 393.945 131.289C394.622 131.497 395.195 131.732 395.664 131.992C396.159 132.253 396.536 132.5 396.797 132.734C397.057 132.969 397.201 133.099 397.227 133.125C397.513 133.438 397.656 133.789 397.656 134.18C397.656 134.57 397.513 134.922 397.227 135.234C396.94 135.521 396.602 135.664 396.211 135.664C395.846 135.664 395.495 135.521 395.156 135.234C395.052 135.156 394.909 135.052 394.727 134.922C394.57 134.766 394.349 134.609 394.062 134.453C393.802 134.297 393.477 134.167 393.086 134.062C392.721 133.958 392.279 133.906 391.758 133.906C390.977 133.906 390.117 134.089 389.18 134.453C388.242 134.792 387.37 135.339 386.562 136.094C385.755 136.849 385.078 137.826 384.531 139.023C383.984 140.195 383.711 141.615 383.711 143.281C383.711 144.531 383.984 145.547 384.531 146.328C385.078 147.083 385.924 147.461 387.07 147.461C387.617 147.461 388.19 147.305 388.789 146.992C389.414 146.68 390.013 146.198 390.586 145.547C391.159 144.896 391.654 144.076 392.07 143.086C392.513 142.096 392.826 140.924 393.008 139.57C393.06 139.206 393.229 138.906 393.516 138.672C393.802 138.411 394.141 138.281 394.531 138.281C394.974 138.281 395.312 138.438 395.547 138.75C395.807 139.062 395.938 139.414 395.938 139.805C395.938 139.831 395.924 140.234 395.898 141.016C395.872 141.771 395.846 142.786 395.82 144.062C395.794 145.339 395.755 146.823 395.703 148.516C395.677 150.182 395.651 151.953 395.625 153.828ZM392.656 162.383C391.432 164.076 390.326 165.911 389.336 167.891C388.346 169.896 387.5 171.914 386.797 173.945C386.094 175.977 385.547 177.943 385.156 179.844C384.792 181.771 384.609 183.49 384.609 185C384.609 185.964 384.688 186.732 384.844 187.305C385.026 187.878 385.234 188.32 385.469 188.633C385.729 188.945 386.003 189.154 386.289 189.258C386.602 189.362 386.888 189.414 387.148 189.414C387.956 189.414 388.659 189.089 389.258 188.438C389.857 187.786 390.365 186.914 390.781 185.82C391.198 184.753 391.536 183.516 391.797 182.109C392.057 180.703 392.253 179.245 392.383 177.734C392.513 176.25 392.604 174.766 392.656 173.281C392.708 171.797 392.734 170.43 392.734 169.18C392.734 168.06 392.734 166.94 392.734 165.82C392.734 164.701 392.708 163.555 392.656 162.383ZM410.547 145.703C411.094 146.458 411.797 147.07 412.656 147.539C413.516 147.982 414.57 148.203 415.82 148.203C417.096 148.203 418.255 147.904 419.297 147.305C420.339 146.68 421.289 145.872 422.148 144.883C423.008 143.893 423.776 142.786 424.453 141.562C425.13 140.339 425.742 139.115 426.289 137.891C426.419 137.604 426.602 137.396 426.836 137.266C427.07 137.109 427.331 137.031 427.617 137.031C428.06 137.031 428.411 137.188 428.672 137.5C428.958 137.812 429.102 138.151 429.102 138.516C429.102 138.646 429.089 138.763 429.062 138.867C429.036 138.945 428.997 139.036 428.945 139.141C427.148 143.099 425.182 146.081 423.047 148.086C420.938 150.091 418.542 151.12 415.859 151.172C414.141 151.172 412.656 150.833 411.406 150.156C410.156 149.505 409.128 148.659 408.32 147.617C407.513 146.549 406.914 145.352 406.523 144.023C406.133 142.695 405.938 141.367 405.938 140.039C405.938 138.711 406.094 137.487 406.406 136.367C406.745 135.247 407.214 134.271 407.812 133.438C408.438 132.604 409.167 131.953 410 131.484C410.859 131.016 411.797 130.781 412.812 130.781C413.411 130.781 413.997 130.911 414.57 131.172C415.169 131.406 415.703 131.758 416.172 132.227C416.641 132.669 417.018 133.216 417.305 133.867C417.591 134.518 417.734 135.26 417.734 136.094C417.734 137.161 417.552 138.164 417.188 139.102C416.823 140.039 416.315 140.911 415.664 141.719C415.039 142.526 414.284 143.268 413.398 143.945C412.513 144.622 411.562 145.208 410.547 145.703ZM409.375 143.164C410.182 142.826 410.911 142.396 411.562 141.875C412.24 141.354 412.812 140.781 413.281 140.156C413.75 139.531 414.115 138.88 414.375 138.203C414.635 137.5 414.766 136.797 414.766 136.094C414.766 135.312 414.57 134.727 414.18 134.336C413.789 133.919 413.333 133.711 412.812 133.711C412.109 133.711 411.51 133.906 411.016 134.297C410.521 134.688 410.117 135.195 409.805 135.82C409.492 136.445 409.258 137.148 409.102 137.93C408.971 138.685 408.906 139.44 408.906 140.195C408.906 140.664 408.945 141.159 409.023 141.68C409.128 142.201 409.245 142.695 409.375 143.164ZM448.555 139.18C448.268 139.779 447.904 140.495 447.461 141.328C447.044 142.135 446.562 142.982 446.016 143.867C445.469 144.753 444.857 145.638 444.18 146.523C443.503 147.383 442.76 148.164 441.953 148.867C441.172 149.544 440.326 150.091 439.414 150.508C438.529 150.951 437.578 151.172 436.562 151.172C435 151.172 433.659 150.69 432.539 149.727C431.419 148.763 430.469 147.5 429.688 145.938C428.906 144.375 428.268 142.604 427.773 140.625C427.305 138.62 426.94 136.589 426.68 134.531C426.419 132.448 426.237 130.43 426.133 128.477C426.055 126.523 426.016 124.792 426.016 123.281C426.016 121.094 426.081 118.828 426.211 116.484C426.367 114.141 426.602 111.849 426.914 109.609C427.227 107.37 427.617 105.247 428.086 103.242C428.581 101.237 429.154 99.4792 429.805 97.9688C430.482 96.4583 431.25 95.2604 432.109 94.375C432.969 93.4896 433.945 93.0469 435.039 93.0469C435.898 93.0469 436.667 93.2552 437.344 93.6719C438.047 94.0625 438.633 94.7135 439.102 95.625C439.57 96.5365 439.935 97.7214 440.195 99.1797C440.456 100.638 440.586 102.422 440.586 104.531C440.586 107.135 440.312 109.831 439.766 112.617C439.219 115.378 438.477 118.164 437.539 120.977C436.602 123.789 435.495 126.602 434.219 129.414C432.943 132.201 431.576 134.922 430.117 137.578C430.768 140.885 431.641 143.49 432.734 145.391C433.828 147.266 435.143 148.203 436.68 148.203C437.721 148.203 438.724 147.799 439.688 146.992C440.651 146.159 441.536 145.182 442.344 144.062C443.151 142.943 443.854 141.81 444.453 140.664C445.078 139.492 445.56 138.555 445.898 137.852C446.029 137.591 446.211 137.396 446.445 137.266C446.68 137.109 446.94 137.031 447.227 137.031C447.669 137.031 448.021 137.188 448.281 137.5C448.568 137.812 448.711 138.164 448.711 138.555C448.711 138.711 448.659 138.919 448.555 139.18ZM428.984 123.477C428.984 125.143 429.023 126.745 429.102 128.281C429.18 129.818 429.284 131.289 429.414 132.695C430.508 130.586 431.549 128.346 432.539 125.977C433.529 123.581 434.401 121.172 435.156 118.75C435.911 116.302 436.51 113.88 436.953 111.484C437.422 109.062 437.656 106.758 437.656 104.57C437.656 101.497 437.409 99.2969 436.914 97.9688C436.419 96.6406 435.755 95.9766 434.922 95.9766C434.375 95.9766 433.841 96.3542 433.32 97.1094C432.826 97.8646 432.357 98.8932 431.914 100.195C431.471 101.497 431.068 103.034 430.703 104.805C430.339 106.576 430.026 108.477 429.766 110.508C429.531 112.539 429.336 114.661 429.18 116.875C429.049 119.089 428.984 121.289 428.984 123.477ZM463.945 145.703C463.294 145.703 462.721 145.651 462.227 145.547C461.836 146.328 461.367 147.057 460.82 147.734C460.273 148.385 459.635 148.958 458.906 149.453C458.203 149.948 457.409 150.339 456.523 150.625C455.638 150.911 454.674 151.055 453.633 151.055C452.409 151.055 451.289 150.833 450.273 150.391C449.258 149.974 448.372 149.388 447.617 148.633C446.862 147.852 446.276 146.927 445.859 145.859C445.443 144.766 445.234 143.568 445.234 142.266C445.234 140.599 445.534 139.154 446.133 137.93C446.732 136.68 447.422 135.651 448.203 134.844C448.984 134.01 449.766 133.398 450.547 133.008C451.328 132.591 451.914 132.383 452.305 132.383C452.747 132.383 453.073 132.5 453.281 132.734C453.516 132.969 453.633 133.281 453.633 133.672C453.633 134.115 453.49 134.453 453.203 134.688C452.943 134.896 452.604 135.104 452.188 135.312C451.771 135.521 451.328 135.82 450.859 136.211C450.391 136.576 449.948 137.044 449.531 137.617C449.141 138.19 448.815 138.867 448.555 139.648C448.294 140.43 448.164 141.302 448.164 142.266C448.164 143.125 448.294 143.932 448.555 144.688C448.815 145.417 449.193 146.055 449.688 146.602C450.182 147.122 450.768 147.539 451.445 147.852C452.122 148.138 452.878 148.281 453.711 148.281C455.195 148.281 456.419 147.943 457.383 147.266C458.372 146.562 459.128 145.677 459.648 144.609C458.112 143.802 456.849 142.656 455.859 141.172C454.87 139.688 454.375 138.021 454.375 136.172C454.375 134.688 454.727 133.477 455.43 132.539C456.159 131.602 457.109 131.133 458.281 131.133C458.984 131.133 459.648 131.302 460.273 131.641C460.898 131.979 461.445 132.513 461.914 133.242C462.409 133.971 462.799 134.909 463.086 136.055C463.372 137.201 463.516 138.568 463.516 140.156C463.516 140.99 463.411 141.862 463.203 142.773C463.359 142.799 463.516 142.812 463.672 142.812C463.828 142.812 463.997 142.812 464.18 142.812C465.065 142.812 465.859 142.708 466.562 142.5C467.266 142.292 467.904 141.979 468.477 141.562C469.049 141.146 469.557 140.612 470 139.961C470.469 139.31 470.911 138.555 471.328 137.695C471.406 137.539 471.576 137.396 471.836 137.266C472.096 137.109 472.357 137.031 472.617 137.031C472.956 137.031 473.268 137.174 473.555 137.461C473.867 137.721 474.023 138.073 474.023 138.516C474.023 138.724 473.971 138.958 473.867 139.219C473.763 139.453 473.659 139.674 473.555 139.883C473.112 140.664 472.591 141.419 471.992 142.148C471.419 142.852 470.729 143.477 469.922 144.023C469.141 144.544 468.255 144.961 467.266 145.273C466.276 145.586 465.169 145.729 463.945 145.703ZM457.266 135.859C457.266 136.354 457.331 136.875 457.461 137.422C457.591 137.969 457.786 138.516 458.047 139.062C458.333 139.583 458.672 140.091 459.062 140.586C459.479 141.055 459.961 141.458 460.508 141.797C460.586 141.25 460.625 140.716 460.625 140.195C460.625 139.492 460.573 138.776 460.469 138.047C460.365 137.318 460.208 136.654 460 136.055C459.818 135.43 459.583 134.935 459.297 134.57C459.01 134.18 458.672 133.984 458.281 133.984C458.125 133.984 457.917 134.102 457.656 134.336C457.396 134.57 457.266 135.078 457.266 135.859Z" fill="#EC3C8C"/>
<path d="M70.3536 123.031L69.3985 124.969L69.358 125.048C67.1409 129.029 63.0461 131.502 58.6687 131.502C56.4729 131.502 54.3038 130.877 52.4022 129.694C49.5492 127.922 47.52 125.084 46.6909 121.7C46.6543 121.556 46.6241 121.411 46.5937 121.265L45.0139 134.073H71.7252L70.3536 123.031Z" fill="black"/>
<path d="M71.9322 76.6024L49.4026 112.655C46.3905 118.063 48.1002 125.033 53.2249 128.214C58.348 131.397 64.9438 129.59 67.9571 124.177L83.2486 93.1286L74.8194 84.665C72.6211 82.2711 71.8728 79.5972 71.9322 76.6024ZM62.3797 120.713C61.1784 122.873 58.5474 123.592 56.5044 122.325C54.4602 121.053 53.7775 118.277 54.9802 116.118C56.1815 113.958 58.8125 113.239 60.8553 114.507C62.8983 115.778 63.5823 118.555 62.3797 120.713Z" fill="black"/>
<path d="M72.4738 135.618H44.4538C42.5457 135.618 41 137.252 41 139.267V150.203H75.9262V139.267C75.9262 137.252 74.3804 135.618 72.4738 135.618Z" fill="black"/>
<path d="M108.417 97.1832C109.522 97.1832 110.584 97.3871 111.568 97.7615L89.7211 70.1756C86.237 66.177 80.343 65.9199 76.5585 69.6011C72.7728 73.2798 72.5307 79.5057 76.0146 83.5028L99.0855 106.653C99.2823 101.396 103.391 97.1832 108.417 97.1832ZM85.2716 79.6001C83.8294 81.0022 81.5833 80.9023 80.2557 79.3789C78.9257 77.8554 79.0191 75.483 80.4626 74.0808C81.905 72.6761 84.1511 72.7746 85.4811 74.2995C86.8087 75.8228 86.7152 78.1952 85.2716 79.6001Z" fill="black"/>
<path d="M103.07 100.95C100.004 104.077 99.918 109.236 102.879 112.475L110.592 120.911L121.693 109.589L113.98 101.152C111.019 97.9134 106.136 97.8224 103.07 100.95ZM110.358 108.922C109.161 110.144 107.255 110.108 106.099 108.844C104.943 107.579 104.975 105.565 106.173 104.344C107.369 103.124 109.277 103.158 110.434 104.423C111.589 105.686 111.555 107.702 110.358 108.922Z" fill="black"/>
<path d="M115.321 118.724C115.281 119.007 115.259 119.297 115.257 119.592C115.251 121.01 115.702 123.215 117.885 125.665C119.618 127.61 121.491 127.73 123.143 127.836C124.722 127.937 125.969 128.017 126.849 129.56C126.936 129.712 127.087 129.796 127.244 129.779C127.342 129.769 127.432 129.719 127.502 129.642C127.542 129.597 127.576 129.542 127.599 129.48C128.648 126.668 128.267 121.808 124.951 117.784C123.446 115.956 121.834 114.849 120.291 114.583C119.889 114.514 119.495 114.504 119.114 114.548L115.321 118.724ZM118.15 119.559C118.333 119.717 118.451 119.949 118.483 120.212C118.717 122.127 119.794 122.815 119.839 122.843C120.126 123.011 120.309 123.367 120.301 123.747C120.3 123.781 120.298 123.814 120.294 123.848C120.281 123.962 120.252 124.072 120.207 124.175C119.992 124.665 119.475 124.862 119.055 124.615C118.977 124.569 117.15 123.463 116.788 120.501C116.782 120.446 116.779 120.391 116.78 120.337C116.791 119.849 117.1 119.444 117.516 119.373C117.742 119.335 117.968 119.401 118.15 119.559Z" fill="#EC3C8C"/>
</svg>
